HIERARCHY
ROOT hip
{
	OFFSET 0.000000 0.000000 0.000000 
	CHANNELS 6 Xposition Yposition Zposition Xrotation Zrotation Yrotation
	JOINT abdomen
	{
		OFFSET 0.000000 3.402643 0.000000 
		CHANNELS 3 Xrotation Zrotation Yrotation
		JOINT chest
		{
			OFFSET 0.000000 8.438565 -0.680529 
			CHANNELS 3 Xrotation Zrotation Yrotation
			JOINT neck
			{
				OFFSET 0.000000 10.207942 -0.272212 
				CHANNELS 3 Xrotation Zrotation Yrotation
				JOINT head
				{
					OFFSET 0.000000 3.130431 0.000000 
					CHANNELS 3 Xrotation Zrotation Yrotation
					End Site
					{
						OFFSET 0.000000 3.130435 0.000000 
					}
				}
			}
			JOINT lCollar
			{
				OFFSET 3.470700 6.669187 -0.816635 
				CHANNELS 3 Yrotation Zrotation Xrotation
				JOINT lShldr
				{
					OFFSET 3.198488 0.000000 0.000000 
					CHANNELS 3 Zrotation Yrotation Xrotation
					JOINT lForeArm
					{
						OFFSET 10.139888 0.000000 0.000000 
						CHANNELS 3 Yrotation Zrotation Xrotation
						JOINT lHand
						{
							OFFSET 8.370511 0.000000 0.000000 
							CHANNELS 3 Zrotation Yrotation Xrotation
							End Site
							{
								OFFSET 4.083176 0.000000 0.000000 
							}
						}
					}
				}
			}
			JOINT rCollar
			{
				OFFSET -3.470700 6.669187 -0.816635 
				CHANNELS 3 Yrotation Zrotation Xrotation
				JOINT rShldr
				{
					OFFSET -3.198488 0.000000 0.000000 
					CHANNELS 3 Zrotation Yrotation Xrotation
					JOINT rForeArm
					{
						OFFSET -10.139888 0.000000 0.000000 
						CHANNELS 3 Yrotation Zrotation Xrotation
						JOINT rHand
						{
							OFFSET -8.370511 0.000000 0.000000 
							CHANNELS 3 Zrotation Yrotation Xrotation
							End Site
							{
								OFFSET -4.083176 0.000000 0.000000 
							}
						}
					}
				}
			}
		}
	}
	JOINT lThigh
	{
		OFFSET 5.308129 -1.633274 1.361059 
		CHANNELS 3 Xrotation Zrotation Yrotation
		JOINT lShin
		{
			OFFSET -2.041588 -20.007561 0.000000 
			CHANNELS 3 Xrotation Zrotation Yrotation
			JOINT lFoot
			{
				OFFSET 0.000000 -19.190928 -1.224953 
				CHANNELS 3 Xrotation Yrotation Zrotation
				End Site
				{
					OFFSET 0.000000 -2.449906 4.627600 
				}
			}
		}
	}
	JOINT rThigh
	{
		OFFSET -5.308129 -1.633274 1.361059 
		CHANNELS 3 Xrotation Zrotation Yrotation
		JOINT rShin
		{
			OFFSET 2.041588 -20.007561 0.000000 
			CHANNELS 3 Xrotation Zrotation Yrotation
			JOINT rFoot
			{
				OFFSET 0.000000 -19.190928 -1.224953 
				CHANNELS 3 Xrotation Yrotation Zrotation
				End Site
				{
					OFFSET 0.000000 -2.449906 4.627600 
				}
			}
		}
	}
}
MOTION
Frames: 14
Frame Time: 0.033333
13.661716 35.807613 28.169142 -14.905138 13.048337 46.063519 39.425278 12.946691 -7.144892 -20.839844 0.000000 0.000000 28.037313 -5.173019 18.805513 -2.520860 -1.255023 0.218345 -4.754609 -0.109182 -0.002653 53.464748 -0.958498 -27.065250 -85.025284 -29.278399 16.647537 18.385571 -9.567194 19.200531 4.754609 0.109182 -0.002672 69.032593 -27.160563 -15.829629 103.662193 10.165106 11.923251 -4.423715 13.936786 21.205608 0.622294 51.930958 24.757215 66.352989 8.534410 -16.203709 -36.842068 -4.243000 -23.932837 -22.713699 -49.193604 -12.210074 52.200832 -4.848820 20.680941 -13.793874 16.656046 12.485327 
12.972812 35.485233 28.322969 -14.727315 12.594316 44.571434 39.877960 12.142731 -7.197781 -20.839844 0.000000 0.000000 25.904659 -6.973820 18.880560 -2.520860 -1.255023 0.218345 -4.754609 -0.109182 -0.002653 54.684605 2.512977 -26.409470 -87.767014 -26.911753 15.664988 17.975075 -7.427015 20.253656 4.754609 0.109182 -0.002672 64.339310 -21.833637 -12.089577 105.196938 12.703835 11.346690 -1.297120 13.186905 22.096905 0.925177 53.044365 25.892191 66.214241 8.377574 -16.078005 -35.703979 -3.989304 -24.916548 -26.287321 -47.466282 -9.115517 52.647942 -5.775341 21.101036 -13.837907 15.834102 16.890657 
12.174725 35.590321 28.409782 -14.391641 10.810753 41.943069 40.056114 12.181479 -7.356418 -20.839844 0.000000 0.000000 20.148891 -7.309741 20.141914 -2.520860 -1.255023 0.218345 -4.754609 -0.109182 -0.002653 54.740288 5.589235 -24.747894 -94.095184 -25.649431 12.822280 18.731846 -3.035866 20.790997 4.754609 0.109182 -0.002672 60.023697 -15.133338 -8.253393 106.318550 15.541937 12.287658 2.452184 14.005784 25.576735 1.820595 53.470661 26.954868 64.727867 7.952001 -15.128100 -34.104969 -2.435331 -25.814835 -30.487633 -45.046951 -7.125530 52.357727 -4.811871 21.101301 -12.052274 16.795996 17.839218 
11.115185 36.237106 28.324490 -13.411662 7.620987 39.029045 39.944950 13.026116 -7.631695 -20.839844 0.000000 0.000000 10.301721 -4.302244 22.489809 -2.520860 -1.255023 0.218345 -4.754609 -0.109182 -0.002653 54.431179 6.879657 -22.467186 -100.059807 -27.015938 10.743666 20.115265 0.901557 22.460184 4.754609 0.109182 -0.002672 57.251404 -7.729656 -4.897586 107.219452 17.912645 14.509520 5.948605 15.376240 30.922791 1.882803 53.777557 27.739935 61.550190 6.916184 -13.824317 -31.235992 -0.735137 -26.491049 -33.680473 -42.868835 -8.220634 49.632221 -0.769239 20.096735 -6.758120 19.871557 16.628740 
9.695722 37.315418 28.138680 -11.368496 3.446815 36.944221 39.632198 14.229608 -8.029255 -20.839844 0.000000 0.000000 -2.111141 3.313933 24.458609 -2.520860 -1.255023 0.218345 -4.754609 -0.109182 -0.002653 54.293591 6.186761 -20.526758 -102.093475 -30.475683 11.142788 21.014009 2.532732 25.634140 4.754609 0.109182 -0.002672 56.711170 -2.059400 -2.493273 109.166283 19.238163 16.416430 8.466470 15.527540 35.839123 -1.031111 54.182610 26.799578 56.933674 5.687665 -12.390416 -26.902645 0.443473 -25.919662 -34.257168 -40.681919 -12.339702 43.365437 5.195702 16.408438 1.860374 22.793087 14.885692 
7.963511 38.585133 27.970638 -8.292275 -0.995345 36.531754 39.329494 15.319045 -8.460387 -20.839844 0.000000 0.000000 -14.527122 13.479591 24.324402 -2.520860 -1.255023 0.218345 -4.754609 -0.109182 -0.002653 54.970089 4.395049 -20.338993 -98.763062 -33.525688 13.874983 21.384308 2.177630 27.576597 4.754609 0.109182 -0.002672 57.916714 -0.527483 -1.357151 112.920563 19.418341 16.567120 9.473735 14.273567 38.357441 -8.331505 54.108707 22.466667 51.799683 5.002680 -11.035952 -21.950430 1.118148 -22.595079 -34.693642 -38.215637 -15.664586 37.610191 9.231518 10.899128 4.900546 22.471367 13.425243 
6.079505 39.785789 27.813765 -4.725353 -5.041489 37.983791 39.282219 16.026552 -8.685005 -20.839844 0.000000 0.000000 -25.108246 21.622648 22.248934 -2.520860 -1.255023 0.218345 -4.754609 -0.109182 -0.002653 56.623093 2.219977 -22.578468 -90.647438 -34.073475 17.357569 21.866560 0.697492 25.740538 4.754609 0.109182 -0.002672 59.872269 -3.342001 -1.624163 117.457359 18.762054 14.963176 8.499863 13.202024 37.987495 -18.652653 52.648479 15.626441 48.062374 4.896158 -10.109326 -18.746874 1.394953 -16.020456 -38.036312 -36.961460 -14.586986 38.803539 9.618348 8.812256 -2.820367 19.104704 9.452254 
4.197531 40.484367 27.721369 -1.351782 -8.220399 40.671242 39.611370 16.331139 -8.457830 -20.839844 0.000000 0.000000 -32.183884 24.717293 20.459562 -2.520860 -1.255023 0.218345 -4.754609 -0.109182 -0.002653 58.088619 -0.425793 -26.880177 -79.332405 -31.416086 20.564327 21.859797 -1.534596 21.200209 4.754609 0.109182 -0.002672 61.794636 -8.843129 -3.066468 121.012032 17.853497 12.514612 6.176580 13.629272 35.503983 -29.099854 50.766514 9.325431 49.184929 5.329700 -10.745124 -19.554733 0.448341 -14.904434 -41.380703 -36.887199 -10.322794 42.370785 6.497264 11.368423 -2.267276 17.200401 9.494362 
2.379534 40.297028 27.774166 1.369818 -10.319380 43.405632 40.224953 16.277502 -7.728997 -20.839844 0.000000 0.000000 -34.254726 22.714403 21.600985 -2.520860 -1.255023 0.218345 -4.754609 -0.109182 -0.002653 58.056641 -3.844551 -32.056713 -68.478271 -26.601696 22.445749 21.119091 -3.769274 17.080669 4.754609 0.109182 -0.002672 63.543900 -14.680378 -5.015858 122.040756 17.217485 10.245872 4.035157 15.397813 31.960798 -35.622730 49.312588 6.290949 53.711533 5.334893 -12.191225 -20.214785 -2.041556 -18.508499 -41.605915 -37.562485 -6.684149 46.197628 2.432284 15.104134 -3.665212 16.731491 10.970788 
0.697085 39.436504 27.858948 3.417763 -11.454741 44.955204 40.906288 15.804256 -6.676259 -20.839844 0.000000 0.000000 -32.138081 17.348450 26.462729 -2.520860 -1.255023 0.218345 -4.754609 -0.109182 -0.002653 55.897816 -7.793653 -36.704411 -61.875061 -21.815990 21.959896 20.568626 -5.439963 14.333694 4.754609 0.109182 -0.002672 65.249214 -18.483118 -6.532340 119.863182 17.104830 8.736710 2.665254 16.663200 28.118883 -36.383545 49.184353 7.112648 57.466362 4.301044 -12.419521 -21.181913 -2.990346 -22.897560 -38.690067 -39.324493 -6.338930 46.632839 0.444149 16.357288 -9.804191 14.854614 17.244968 
-0.781287 38.422665 27.915810 5.022965 -12.044772 44.709648 41.430801 14.918095 -5.583047 -20.839844 0.000000 0.000000 -28.926989 10.916802 33.801338 -2.520860 -1.255023 0.218345 -4.754609 -0.109182 -0.002653 52.057972 -11.561976 -39.600300 -60.551907 -18.749462 20.042233 21.157225 -6.497056 12.776234 4.754609 0.109182 -0.002672 66.792976 -18.912212 -6.911167 114.809731 17.421724 8.420218 1.156601 15.385503 24.717937 -33.980030 50.304058 9.938241 58.254601 2.630696 -11.325198 -23.370989 -1.402103 -26.567579 -37.201862 -41.887177 -8.190593 46.240028 1.210934 15.671326 -19.843372 11.570692 24.837090 
-2.109881 37.632214 28.056435 6.441699 -12.472089 43.026257 41.701530 13.784884 -4.625849 -20.839844 0.000000 0.000000 -27.263170 5.452077 41.637268 -2.520860 -1.255023 0.218345 -4.754609 -0.109182 -0.002653 47.308453 -15.063766 -40.336872 -62.914127 -17.920507 19.738556 23.101202 -6.528192 14.235973 4.754609 0.109182 -0.002672 68.080978 -16.627264 -6.153140 108.053650 17.894924 9.151499 -1.186055 11.935916 22.115238 -32.332500 51.861557 11.950492 57.327335 1.674123 -10.060262 -26.359629 1.494277 -29.480568 -40.258900 -44.084866 -9.481371 47.204323 3.340321 16.314955 -21.460115 13.370622 31.267595 
-3.313082 37.137737 28.367643 7.831738 -12.774351 40.923931 41.739513 12.664124 -3.995305 -20.839844 0.000000 0.000000 -27.551712 1.826601 48.307293 -2.520860 -1.255023 0.218345 -4.754609 -0.109182 -0.002653 41.082207 -19.717636 -39.677711 -66.061333 -18.493954 22.054289 25.045670 -5.426683 19.120892 4.754609 0.109182 -0.002672 69.312729 -13.402190 -4.797477 101.394279 18.430805 9.313148 -3.962063 7.987311 18.909842 -32.147194 53.062370 12.473894 55.407078 1.479964 -9.583072 -25.301430 2.588063 -31.839331 -47.625122 -44.597385 -7.686564 52.503624 4.221968 17.334024 -21.340380 16.378780 28.531887 
-4.336047 36.887440 28.810848 9.103010 -12.743254 39.516949 41.710957 11.804992 -3.861214 -20.839844 0.000000 0.000000 -28.754742 -0.177978 52.944557 -2.520860 -1.255023 0.218345 -4.754609 -0.109182 -0.002653 31.225163 -27.528360 -37.601715 -66.626144 -19.464344 24.763071 25.847853 -4.385279 22.977318 4.754609 0.109182 -0.002672 70.754608 -10.348619 -3.373960 96.045166 18.819288 7.438995 -6.272236 4.001244 13.466703 -32.284855 53.776817 12.762575 53.776070 1.198683 -9.303353 -23.460466 2.366027 -31.633392 -53.283566 -43.401302 -4.992152 56.480370 3.566898 17.847630 -21.936045 16.583195 26.720003 
